<svg width="132" height="55" viewBox="0 0 132 55" fill="none" xmlns="http://www.w3.org/2000/svg">
<path d="M0 2.16016V41.5202H12.54C14.74 41.5202 16.76 41.2802 18.6 40.8002C20.44 40.3202 22.02 39.6002 23.34 38.6402C24.66 37.6802 25.68 36.4802 26.4 35.0402C27.12 33.6002 27.48 31.9202 27.48 30.0002C27.48 27.2802 26.68 25.1402 25.08 23.5802C23.48 22.0202 21.24 21.0202 18.36 20.5802V20.3402C20.68 19.7402 22.4 18.6502 23.52 17.0702C24.64 15.4902 25.2 13.7202 25.2 11.7602C25.2 10.0402 24.87 8.57016 24.21 7.35016C23.55 6.13016 22.63 5.14016 21.45 4.38016C20.27 3.62016 18.85 3.06016 17.19 2.70016C15.53 2.34016 13.7 2.16016 11.7 2.16016H0ZM10.8 18.9602H4.98V6.12016H11.04C14.12 6.12016 16.43 6.59016 17.97 7.53016C19.51 8.47016 20.28 10.0202 20.28 12.1802C20.28 14.3802 19.55 16.0602 18.09 17.2202C16.63 18.3802 14.2 18.9602 10.8 18.9602ZM11.82 37.5602H4.98V22.6802H11.82C15.3 22.6802 17.96 23.2502 19.8 24.3902C21.64 25.5302 22.56 27.3202 22.56 29.7602C22.56 32.4402 21.62 34.4102 19.74 35.6702C17.86 36.9302 15.22 37.5602 11.82 37.5602Z" fill="#070707"/>
<path d="M38.38 12.36V44.82C38.38 46.62 38.14 48.02 37.66 49.02C37.18 50.02 36.22 50.52 34.78 50.52C34.26 50.52 33.76 50.47 33.28 50.37C32.8 50.27 32.38 50.16 32.02 50.04L31 53.76C31.52 53.96 32.14 54.14 32.86 54.3C33.58 54.46 34.4 54.54 35.32 54.54C38.24 54.54 40.3 53.66 41.5 51.9C42.7 50.14 43.3 47.78 43.3 44.82V12.36H38.38ZM40.9 6.36C41.82 6.36 42.61 6.06 43.27 5.46C43.93 4.86 44.26 4.1 44.26 3.18C44.26 2.22 43.93 1.45 43.27 0.869999C42.61 0.289999 41.82 0 40.9 0C39.94 0 39.13 0.289999 38.47 0.869999C37.81 1.45 37.48 2.22 37.48 3.18C37.48 4.1 37.81 4.86 38.47 5.46C39.13 6.06 39.94 6.36 40.9 6.36Z" fill="#070707"/>
<g clip-path="url(#clip0_120_200)">
<g clip-path="url(#clip1_120_200)">
<path d="M62.866 9.58725C62.6601 9.17533 63.2853 8.86149 63.4912 9.27341L64.2243 10.72L64.7 9.16062C64.8349 8.71929 65.5067 8.92524 65.3718 9.36413L64.6828 11.6247L65.6047 13.444L66.5315 11.6198L65.8499 9.36903C65.7175 8.9277 66.3893 8.72909 66.5193 9.16553L66.99 10.72L67.7305 9.2636C67.9389 8.85169 68.5641 9.17043 68.3557 9.58234L67.2843 11.6885L67.8752 13.6402L69.106 12.0048L68.824 9.67061C68.7701 9.21211 69.4664 9.13365 69.5179 9.58725L69.7116 11.1981L70.6923 9.89373C70.9719 9.52595 71.5309 9.94767 71.2538 10.3154L69.8342 12.2034L70.0769 14.2286L71.5726 12.8311L71.7001 10.4846C71.727 10.0237 72.4258 10.0678 72.3988 10.5214L72.3106 12.1421L73.5022 11.0289C73.8405 10.7151 74.3186 11.2275 73.9827 11.5414L72.2566 13.1547L72.1438 15.1922L73.8601 14.0741L74.3947 11.7841C74.5001 11.3354 75.1817 11.4997 75.0763 11.9435L74.706 13.5225L76.0742 12.6325C76.4616 12.3824 76.8441 12.9708 76.4567 13.2209L74.4756 14.5106L74.0122 16.4966L75.8976 15.6948L76.822 13.5323C77.0034 13.1081 77.6483 13.3876 77.4644 13.8069L76.8269 15.3001L78.3274 14.6601C78.7541 14.4812 79.0262 15.126 78.602 15.305L76.4272 16.2293L75.6255 18.105L77.6213 17.6416L78.9061 15.6728C79.1586 15.2878 79.7446 15.6752 79.4921 16.0552L78.6045 17.4136L80.1933 17.0458C80.6444 16.9428 80.8014 17.6269 80.3527 17.7299L78.0504 18.2644L76.9348 19.9733L78.9796 19.863L80.5856 18.1467C80.9019 17.8108 81.4119 18.2938 81.0956 18.6248L79.9873 19.809L81.6154 19.7208C82.0763 19.6963 82.1131 20.3975 81.6522 20.422L79.2935 20.5471L77.8984 22.0353L79.9309 22.283L81.8115 20.8732C82.1818 20.5985 82.5986 21.16 82.2308 21.4322L80.9338 22.4056L82.552 22.6017C83.0105 22.6581 82.9247 23.3544 82.4662 23.298L80.1222 23.0112L78.4893 24.2346L80.4483 24.8305L82.5446 23.7688C82.9565 23.5628 83.2704 24.1881 82.8609 24.3916L81.4119 25.1247L82.9713 25.6003C83.4126 25.7352 83.2066 26.407 82.7678 26.2721L80.5071 25.5832L78.6879 26.5051L80.512 27.4319L82.7628 26.7503C83.2042 26.6179 83.4028 27.2897 82.9664 27.4196L81.4143 27.8904L82.8683 28.6308C83.2802 28.8417 82.9614 29.4645 82.5495 29.2561L80.4434 28.1846L78.4917 28.7755L80.1271 30.0063L82.4613 29.7268C82.9198 29.6729 82.9982 30.3692 82.5446 30.4207L80.9338 30.6144L82.2381 31.5951C82.6059 31.8722 82.1842 32.4337 81.8164 32.1566L79.9285 30.737L77.9033 30.9797L79.3008 32.4753L81.6473 32.6053C82.1082 32.6323 82.0641 33.331 81.6105 33.3041L79.9898 33.2158L81.1029 34.4074C81.4168 34.7458 80.9043 35.2239 80.5905 34.8855L78.9772 33.1594L76.9397 33.0466L78.0553 34.7629L80.3453 35.2974C80.794 35.4029 80.6297 36.0845 80.1859 35.9791L78.6069 35.6088L79.497 36.977C79.7471 37.3644 79.1586 37.7444 78.9085 37.3594L77.6188 35.3783L75.6328 34.9149L76.4321 36.8004L78.5947 37.7248C79.0189 37.9062 78.7393 38.5486 78.3201 38.3672L76.8293 37.7297L77.4668 39.2302C77.6483 39.6544 77.001 39.929 76.822 39.5048L75.8976 37.33L74.022 36.5283L74.4854 38.5241L76.4542 39.8089C76.8392 40.0614 76.4542 40.6474 76.0717 40.3948L74.7134 39.5073L75.0812 41.0961C75.1842 41.5472 74.5025 41.7041 74.3971 41.2554L73.8626 38.9532L72.1537 37.8376L72.2615 39.8824L73.9778 41.4884C74.3137 41.8047 73.8307 42.3122 73.4997 41.9984L72.3155 40.8901L72.4037 42.5182C72.4283 42.9791 71.727 43.0159 71.7025 42.5549L71.5775 40.1962L70.0892 38.8011L69.8416 40.8337L71.2514 42.7143C71.526 43.0845 70.9645 43.5014 70.6923 43.1336L69.719 41.8365L69.5228 43.4548C69.4664 43.9133 68.7701 43.8275 68.8265 43.369L69.1134 41.025L67.8899 39.392L67.2941 41.3511L68.3557 43.4474C68.5617 43.8593 67.9365 44.1707 67.7305 43.7637L66.9974 42.3171L66.5217 43.8765C66.3869 44.3178 65.7151 44.1119 65.8499 43.673L66.5389 41.4124L65.617 39.5931L64.6902 41.4173L65.3718 43.6681C65.5042 44.1094 64.8324 44.308 64.7025 43.8716L64.2317 42.3196L63.4937 43.7735C63.2828 44.1854 62.6601 43.8667 62.8685 43.4548L63.9399 41.3486L63.349 39.3969L62.1182 41.0323L62.3977 43.3665C62.4517 43.825 61.7553 43.9035 61.7038 43.4499L61.5101 41.839L60.5294 43.1409C60.2523 43.5087 59.6909 43.087 59.9679 42.7192L61.3875 40.8313L61.1448 38.806L59.6492 40.2036L59.5192 42.55C59.4923 43.011 58.7935 42.9668 58.8204 42.5133L58.9087 40.8926L57.7171 42.0057C57.3788 42.322 56.9006 41.8071 57.239 41.4933L58.9651 39.88L59.0779 37.8425L57.3616 38.9581L56.8271 41.2481C56.7217 41.6968 56.04 41.535 56.1455 41.0887L56.5157 39.5097L55.1476 40.3998C54.7602 40.6498 54.3801 40.0614 54.7651 39.8113L56.7437 38.5241L57.2071 36.5381L55.3266 37.3398L54.4022 39.4999C54.2208 39.9241 53.5784 39.6446 53.7598 39.2253L54.3973 37.7346L52.8968 38.3721C52.4726 38.5535 52.198 37.9062 52.6221 37.7272L54.7945 36.8029L55.5963 34.9272L53.6029 35.3906L52.3181 37.3594C52.0656 37.7444 51.482 37.3594 51.7321 36.977L52.6197 35.6186L51.0309 35.9864C50.5798 36.0894 50.4228 35.4078 50.8715 35.3023L53.1738 34.7678L54.2894 33.0589L52.2446 33.1668L50.6361 34.8831C50.3199 35.219 49.8123 34.736 50.1262 34.405L51.2344 33.2232L49.6064 33.309C49.1454 33.3335 49.1086 32.6323 49.5696 32.6077L51.9283 32.4827L53.3234 30.9944L51.2908 30.7468L49.4102 32.1566C49.0424 32.4312 48.6232 31.8697 48.9909 31.5976L50.288 30.6242L48.6698 30.428C48.2113 30.3717 48.2971 29.6753 48.7556 29.7317L51.0995 30.0161L52.7325 28.7927L50.7734 28.1969L48.6747 29.2585C48.2627 29.4669 47.9514 28.8392 48.3584 28.6333L49.805 27.9002L48.2456 27.4245C47.8042 27.2897 48.0102 26.6179 48.4491 26.7527L50.7097 27.4417L52.529 26.5198L50.7048 25.593L48.4613 26.2795C48.02 26.4119 47.819 25.7401 48.2603 25.6101L49.8123 25.1394L48.3584 24.4014C47.9465 24.1905 48.2652 23.5677 48.6771 23.7762L50.7833 24.8452L52.7349 24.2543L51.0995 23.0234L48.7654 23.3054C48.3069 23.3593 48.2284 22.663 48.682 22.6115L50.2929 22.4178L48.9909 21.4371C48.6232 21.16 49.0449 20.5985 49.4127 20.8781L51.3006 22.2977L53.3258 22.0549L51.9283 20.5593L49.5794 20.4294C49.1184 20.4024 49.1601 19.7036 49.6186 19.7306L51.2368 19.8189L50.1237 18.6272C49.8074 18.2889 50.3223 17.8108 50.6361 18.1491L52.2495 19.8752L54.287 19.988L53.1714 18.2717L50.8813 17.7372C50.4326 17.6318 50.5945 16.9502 51.0407 17.0556L52.6197 17.4234L51.7272 16.0577C51.4771 15.6703 52.0656 15.2903 52.3157 15.6752L53.6053 17.6539L55.5914 18.1173L54.7896 16.2367L52.6271 15.3123C52.2029 15.1309 52.4824 14.4885 52.9017 14.6699L54.3924 15.3074L53.7549 13.8069C53.5735 13.3803 54.2183 13.1081 54.3997 13.5323L55.3241 15.7046L57.1998 16.5064L56.7388 14.513L54.77 13.2283C54.385 12.9757 54.77 12.3897 55.1525 12.6423L56.5108 13.5298L56.143 11.941C56.04 11.4923 56.7217 11.333 56.8271 11.7817L57.3616 14.0815L59.0705 15.1971L58.9627 13.1547L57.2464 11.5463C56.9105 11.23 57.391 10.72 57.7269 11.0363L58.9087 12.1445L58.8204 10.5165C58.7959 10.0556 59.4972 10.0188 59.5217 10.4797L59.6467 12.8384L61.135 14.2335L61.3826 12.2034L59.9679 10.3204C59.6933 9.95012 60.2548 9.5333 60.5269 9.90108L61.5003 11.1981L61.6965 9.57989C61.7529 9.12139 62.4492 9.20721 62.3928 9.6657L62.1084 12.0097L63.3319 13.6426L63.9277 11.686L62.866 9.58725ZM66.8233 12.5883L65.9137 14.3757C65.7298 14.7386 65.2419 14.4664 65.2885 14.3733L64.3837 12.5883L63.8002 14.5057C63.6825 14.8955 63.1553 14.7116 63.1848 14.6136L61.9858 13.0125L61.7455 15.0034C61.6965 15.4055 61.1448 15.3197 61.1571 15.2143L59.6982 13.8461L59.8061 15.8468C59.8282 16.2538 59.2691 16.2612 59.2642 16.1582L57.5896 15.0647L58.0432 17.0164C58.1364 17.4136 57.5872 17.519 57.5626 17.416L55.7238 16.629L56.5083 18.4728C56.6677 18.8479 56.1455 19.0465 56.1062 18.9509L54.1595 18.4973L55.253 20.1768C55.4737 20.5176 54.9955 20.8045 54.9392 20.7162L52.9409 20.6059L54.309 22.0721C54.5861 22.3688 54.1668 22.7341 54.0933 22.6581L52.1073 22.8959L53.7108 24.1022C54.0369 24.345 53.6863 24.779 53.6004 24.7177L51.6855 25.2963L53.4729 26.2059C53.8358 26.3898 53.5661 26.8778 53.4705 26.8312L51.6855 27.7359L53.6029 28.3194C53.9927 28.4371 53.8088 28.9643 53.7108 28.9349L52.1097 30.1338L54.1006 30.3766C54.5052 30.4256 54.4169 30.9748 54.3115 30.965L52.9433 32.4239L54.9465 32.316C55.3535 32.2939 55.3633 32.8505 55.2579 32.8578L54.1644 34.5325L56.1185 34.0789C56.5157 33.9857 56.6211 34.5325 56.5182 34.5594L55.7311 36.3983L57.5774 35.6137C57.9525 35.4544 58.1511 35.9741 58.0555 36.0158L57.6019 37.9626L59.2814 36.8691C59.6222 36.646 59.9091 37.1241 59.8208 37.1829L59.7105 39.1812L61.1767 37.813C61.4734 37.536 61.8387 37.9553 61.7627 38.0288L62.0005 40.0148L63.2068 38.4113C63.4496 38.0852 63.8835 38.4358 63.8222 38.5216L64.4009 40.4365L65.3105 38.6491C65.4944 38.2863 65.9799 38.556 65.9357 38.6516L66.8405 40.4365L67.424 38.5192C67.5417 38.1293 68.0689 38.3108 68.0394 38.4113L69.2384 40.0124L69.4811 38.0215C69.5302 37.6169 70.0794 37.7052 70.0696 37.8081L71.5284 39.1763L71.4205 37.1756C71.3985 36.7686 71.9551 36.7587 71.9624 36.8642L73.637 37.9577L73.1834 36.006C73.0903 35.6088 73.637 35.5034 73.664 35.6064L75.5029 36.3934L74.7183 34.5472C74.5589 34.172 75.0787 33.9734 75.1204 34.0691L77.0696 34.5226L75.9712 32.8529C75.7481 32.5121 76.2262 32.2253 76.285 32.3135L78.2808 32.4239L76.9127 30.9576C76.6332 30.661 77.0549 30.2956 77.1285 30.3717L79.1145 30.1314L77.5134 28.9275C77.1873 28.6848 77.5379 28.2508 77.6238 28.3121L79.5387 27.7335L77.7512 26.8238C77.3884 26.6399 77.6581 26.1545 77.7537 26.1986L79.5387 25.2939L77.6213 24.7103C77.2315 24.5926 77.4129 24.0679 77.5134 24.0949L79.1145 22.8959L77.126 22.6532C76.7215 22.6042 76.8097 22.0549 76.9127 22.0648L78.2808 20.6059L76.2801 20.7113C75.8731 20.7334 75.8633 20.1768 75.9687 20.1695L77.0623 18.4948L75.1106 18.9484C74.7134 19.0416 74.608 18.4948 74.7109 18.4679L75.498 16.629L73.6542 17.4136C73.2791 17.5754 73.0805 17.0556 73.1761 17.0115L73.6297 15.0622L71.9502 16.1558C71.6093 16.3789 71.3225 15.9008 71.4107 15.8419L71.5211 13.8461L70.0549 15.2143C69.7582 15.4938 69.3929 15.0721 69.4689 14.9985L69.2286 13.0125L68.0198 14.6111C67.7771 14.9372 67.3431 14.5866 67.4044 14.5008L66.8233 12.5883Z" fill="#070707"/>
<path d="M65.6097 38.1467C71.9809 38.1467 77.1457 32.9819 77.1457 26.6107C77.1457 20.2395 71.9809 15.0747 65.6097 15.0747C59.2386 15.0747 54.0737 20.2395 54.0737 26.6107C54.0737 32.9819 59.2386 38.1467 65.6097 38.1467Z" fill="#070707"/>
</g>
</g>
<path d="M88 12.3601V41.5201H92.92V22.8001C93.92 20.3201 95.09 18.5801 96.43 17.5801C97.77 16.5801 99.06 16.0801 100.3 16.0801C100.9 16.0801 101.4 16.1201 101.8 16.2001C102.2 16.2801 102.64 16.4001 103.12 16.5601L104.08 12.2401C103.16 11.8401 102.12 11.6401 100.96 11.6401C99.28 11.6401 97.73 12.1801 96.31 13.2601C94.89 14.3401 93.68 15.8001 92.68 17.6401H92.5L92.08 12.3601H88Z" fill="#070707"/>
<path d="M108 12.3601V41.5201H112.92V20.4001C114.4 18.9201 115.72 17.8001 116.88 17.0401C118.04 16.2801 119.38 15.9001 120.9 15.9001C122.82 15.9001 124.22 16.5101 125.1 17.7301C125.98 18.9501 126.42 20.9401 126.42 23.7001V41.5201H131.34V23.0401C131.34 19.2801 130.63 16.4401 129.21 14.5201C127.79 12.6001 125.54 11.6401 122.46 11.6401C120.42 11.6401 118.63 12.1101 117.09 13.0501C115.55 13.9901 114.08 15.1601 112.68 16.5601H112.5L112.08 12.3601H108Z" fill="#070707"/>
<defs>
<clipPath id="clip0_120_200">
<rect width="36.72" height="36.7097" fill="white" transform="translate(48 8.91504)"/>
</clipPath>
<clipPath id="clip1_120_200">
<rect width="99.1069" height="99.0793" fill="white" transform="translate(48 8.91504)"/>
</clipPath>
</defs>
</svg>
